<svg xmlns="http://www.w3.org/2000/svg" 
viewBox="0 0 430 667" preserveAspectRatio="none" fill="none">
  <path d="M12.0186 0C12.2759 3.90895 15.5259 7 19.5 7C23.4741 7 26.7241 3.90895 26.9814 0H35.0186C35.2759 3.90895 38.5259 7 42.5 7C46.4741 7 49.7241 3.90895 49.9814 0H58.0186C58.2759 3.90895 61.5259 7 65.5 7C69.4741 7 72.7241 3.90895 72.9814 0H81.0186C81.2759 3.90895 84.5259 7 88.5 7C92.4741 7 95.7241 3.90895 95.9814 0H104.019C104.276 3.90895 107.526 7 111.5 7C115.474 7 118.724 3.90895 118.981 0H127.019C127.276 3.90895 130.526 7 134.5 7C138.474 7 141.724 3.90895 141.981 0H150.019C150.276 3.90895 153.526 7 157.5 7C161.474 7 164.724 3.90895 164.981 0H173.019C173.276 3.90895 176.526 7 180.5 7C184.474 7 187.724 3.90895 187.981 0H196.019C196.276 3.90895 199.526 7 203.5 7C207.474 7 210.724 3.90895 210.981 0H219.019C219.276 3.90895 222.526 7 226.5 7C230.474 7 233.724 3.90895 233.981 0H242.019C242.276 3.90895 245.526 7 249.5 7C253.474 7 256.724 3.90895 256.981 0H265.019C265.276 3.90895 268.526 7 272.5 7C276.474 7 279.724 3.90895 279.981 0H288.019C288.276 3.90895 291.526 7 295.5 7C299.474 7 302.724 3.90895 302.981 0H311.019C311.276 3.90895 314.526 7 318.5 7C322.474 7 325.724 3.90895 325.981 0H334.019C334.276 3.90895 337.526 7 341.5 7C345.474 7 348.724 3.90895 348.981 0H357.019C357.276 3.90895 360.526 7 364.5 7C368.474 7 371.724 3.90895 371.981 0H380.019C380.276 3.90895 383.526 7 387.5 7C391.474 7 394.724 3.90895 394.981 0H403.019C403.276 3.90895 406.526 7 410.5 7C414.474 7 417.724 3.90895 417.981 0H420C425.523 2.57703e-06 430 4.47715 430 10V657C430 662.523 425.523 667 420 667H417.981C417.992 666.835 418 666.668 418 666.5C418 662.358 414.642 659 410.5 659C406.358 659 403 662.358 403 666.5C403 666.668 403.008 666.835 403.019 667H394.981C394.992 666.835 395 666.668 395 666.5C395 662.358 391.642 659 387.5 659C383.358 659 380 662.358 380 666.5C380 666.668 380.008 666.835 380.019 667H371.981C371.992 666.835 372 666.668 372 666.5C372 662.358 368.642 659 364.5 659C360.358 659 357 662.358 357 666.5C357 666.668 357.008 666.835 357.019 667H348.981C348.992 666.835 349 666.668 349 666.5C349 662.358 345.642 659 341.5 659C337.358 659 334 662.358 334 666.5C334 666.668 334.008 666.835 334.019 667H325.981C325.992 666.835 326 666.668 326 666.5C326 662.358 322.642 659 318.5 659C314.358 659 311 662.358 311 666.5C311 666.668 311.008 666.835 311.019 667H302.981C302.992 666.835 303 666.668 303 666.5C303 662.358 299.642 659 295.5 659C291.358 659 288 662.358 288 666.5C288 666.668 288.008 666.835 288.019 667H279.981C279.992 666.835 280 666.668 280 666.5C280 662.358 276.642 659 272.5 659C268.358 659 265 662.358 265 666.5C265 666.668 265.008 666.835 265.019 667H256.981C256.992 666.835 257 666.668 257 666.5C257 662.358 253.642 659 249.5 659C245.358 659 242 662.358 242 666.5C242 666.668 242.008 666.835 242.019 667H233.981C233.992 666.835 234 666.668 234 666.5C234 662.358 230.642 659 226.5 659C222.358 659 219 662.358 219 666.5C219 666.668 219.008 666.835 219.019 667H210.981C210.992 666.835 211 666.668 211 666.5C211 662.358 207.642 659 203.5 659C199.358 659 196 662.358 196 666.5C196 666.668 196.008 666.835 196.019 667H187.981C187.992 666.835 188 666.668 188 666.5C188 662.358 184.642 659 180.5 659C176.358 659 173 662.358 173 666.5C173 666.668 173.008 666.835 173.019 667H164.981C164.992 666.835 165 666.668 165 666.5C165 662.358 161.642 659 157.5 659C153.358 659 150 662.358 150 666.5C150 666.668 150.008 666.835 150.019 667H141.981C141.992 666.835 142 666.668 142 666.5C142 662.358 138.642 659 134.5 659C130.358 659 127 662.358 127 666.5C127 666.668 127.008 666.835 127.019 667H118.981C118.992 666.835 119 666.668 119 666.5C119 662.358 115.642 659 111.5 659C107.358 659 104 662.358 104 666.5C104 666.668 104.008 666.835 104.019 667H95.9814C95.9923 666.835 96 666.668 96 666.5C96 662.358 92.6421 659 88.5 659C84.3579 659 81 662.358 81 666.5C81 666.668 81.0077 666.835 81.0186 667H72.9814C72.9923 666.835 73 666.668 73 666.5C73 662.358 69.6421 659 65.5 659C61.3579 659 58 662.358 58 666.5C58 666.668 58.0077 666.835 58.0186 667H49.9814C49.9923 666.835 50 666.668 50 666.5C50 662.358 46.6421 659 42.5 659C38.3579 659 35 662.358 35 666.5C35 666.668 35.0077 666.835 35.0186 667H26.9814C26.9923 666.835 27 666.668 27 666.5C27 662.358 23.6421 659 19.5 659C15.3579 659 12 662.358 12 666.5C12 666.668 12.0077 666.835 12.0186 667H10C4.47715 667 0 662.523 0 657V10C0 4.47715 4.47715 0 10 0H12.0186Z" fill="white"/>
</svg>